<svg xmlns="http://www.w3.org/2000/svg" xmlns:xlink="http://www.w3.org/1999/xlink" width="482" height="840"><g transform="translate(151 20)"><path d="M128 0c17.67 0 32 17.9 32 40s-14.33 40-32 40H32C14.33 80 0 62.1 0 40S14.33 0 32 0z" stroke="#000" stroke-width="2" fill="#fff"/><use xlink:href="#a" transform="matrix(1,0,0,1,5,5) translate(29.5 38.6)"/><use xlink:href="#b" transform="matrix(1,0,0,1,5,5) translate(78.5 38.6)"/><path d="M80 140v-1.92 22.65" stroke="#000" stroke-width="2" fill="none"/><path d="M81 140h-2v-3h2z"/><path d="M80 160.73l-4.64-14.27h9.28z" stroke="#000" stroke-width="2"/><path d="M80 80v60" stroke="#000" stroke-width="2" fill="none"/><path d="M81 80h-2 2zM80 140l-4.64-14.27h9.28z"/><path d="M81.05 140h-2.1L74 124.73h12zm-4.3-13.27L80 136.76l3.26-10.03z"/><path d="M0 145c0-2.76 2.24-5 5-5h150c2.76 0 5 2.24 5 5v70c0 2.76-2.24 5-5 5H5c-2.76 0-5-2.24-5-5z" stroke="#000" stroke-width="2" fill="#fff"/><use xlink:href="#c" transform="matrix(1,0,0,1,5,145) translate(15.524999999999999 38.6)"/><use xlink:href="#b" transform="matrix(1,0,0,1,5,145) translate(92.475 38.6)"/><path d="M80 220v60" stroke="#000" stroke-width="2" fill="none"/><path d="M81 220h-2 2zM80 280l-4.64-14.27h9.28z"/><path d="M80.6 281.37l-1.1-.05h-.12l-5.4-16.6h12.03zm-3.86-14.64L80 276.76l3.26-10.03z"/><path d="M75.53 282.24c2.47-1.24 6.47-1.24 8.94 0l111.06 55.52c2.47 1.24 2.47 3.24 0 4.48L84.47 397.76C82 399 78 399 75.53 397.76l-111.06-55.52c-2.47-1.24-2.47-3.24 0-4.48z" stroke="#000" stroke-width="2" fill="#fff"/><use xlink:href="#d" transform="matrix(1,0,0,1,-35,285) translate(65.5 47.8)"/><use xlink:href="#e" transform="matrix(1,0,0,1,-35,285) translate(122.5 47.8)"/><use xlink:href="#f" transform="matrix(1,0,0,1,-35,285) translate(80.575 69.4)"/><path d="M-40 340h-95c-2.76 0-5-2.24-5-5V45c0-2.76 2.24-5 5-5H0" stroke="#000" stroke-width="2" fill="none"/><path d="M-37 339.6l-.36.66.36.38v.36h-3v-2h3zM0 40l-14.27 4.64v-9.28z"/><path d="M.06 38.97L0 40l.04 1.04-15.3 4.97V34zm-13.33 4.3L-3.24 40l-10.03-3.26z"/><use xlink:href="#g" transform="matrix(1,0,0,1,-89.00833333333325,314.4) translate(0 14.4)"/><path d="M80 398.66V480" stroke="#000" stroke-width="2" fill="none"/><path d="M80 398.66h-1v-.05zm1 0h-.3l.3-.04zM80 480l-4.64-14.27h9.28z"/><path d="M80.6 481.37l-1.1-.05h-.12l-5.4-16.6h12.03zm-3.86-14.64L80 476.76l3.26-10.03z"/><use xlink:href="#h" transform="matrix(1,0,0,1,88,421.1666408139057) translate(0 14.4)"/><path d="M75.53 482.24c2.47-1.24 6.47-1.24 8.94 0l111.06 55.52c2.47 1.24 2.47 3.24 0 4.48L84.47 597.76C82 599 78 599 75.53 597.76l-111.06-55.52c-2.47-1.24-2.47-3.24 0-4.48z" stroke="#000" stroke-width="2" fill="#fff"/><use xlink:href="#i" transform="matrix(1,0,0,1,-35,485) translate(28.099999999999994 58.6)"/><use xlink:href="#j" transform="matrix(1,0,0,1,-35,485) translate(65.05 58.6)"/><use xlink:href="#k" transform="matrix(1,0,0,1,-35,485) translate(110.95 58.6)"/><path d="M197.22 540H275c2.76 0 5-2.24 5-5V185c0-2.76-2.24-5-5-5H160" stroke="#000" stroke-width="2" fill="none"/><path d="M197.22 541h-.54l.54-1zm0-1.4l-.55-.6h.55zM174.27 184.64L160 180l14.27-4.64z"/><path d="M175.27 186L160 181.06v-2.1l15.27-4.96zm-12.03-6l10.03 3.26v-6.52z"/><use xlink:href="#g" transform="matrix(1,0,0,1,225.65833333333347,514.4000000000001) translate(0 14.4)"/><path d="M80 598.66V720" stroke="#000" stroke-width="2" fill="none"/><path d="M80 598.66h-1v-.05zm1 0h-.3l.3-.04zM80 720l-4.64-14.27h9.28z"/><path d="M81.05 720h-2.1L74 704.73h12zm-4.3-13.27L80 716.76l3.26-10.03z"/><use xlink:href="#h" transform="matrix(1,0,0,1,88,625.2) translate(0 14.4)"/><path d="M-40 725c0-2.76 2.24-5 5-5h230c2.76 0 5 2.24 5 5v70c0 2.76-2.24 5-5 5H-35c-2.76 0-5-2.24-5-5z" stroke="#000" stroke-width="2" fill="#fff"/><g><use xlink:href="#l" transform="matrix(1,0,0,1,-35,725) translate(12.549999999999997 38.6)"/><use xlink:href="#m" transform="matrix(1,0,0,1,-35,725) translate(49.55 38.6)"/><use xlink:href="#n" transform="matrix(1,0,0,1,-35,725) translate(90.45 38.6)"/><use xlink:href="#b" transform="matrix(1,0,0,1,-35,725) translate(175.45 38.6)"/></g><path d="M200 760h115c2.76 0 5-2.24 5-5V45c0-2.76-2.24-5-5-5H160" stroke="#000" stroke-width="2" fill="none"/><path d="M174.27 44.64L160 40l14.27-4.64z"/><path d="M175.27 46l-15.33-4.97L160 40l-.04-1.04 15.3-4.97zm-12.03-6l10.03 3.26v-6.52z"/><defs><path d="M33 0v-248h34V0H33" id="o"/><path d="M117-194c89-4 53 116 60 194h-32v-121c0-31-8-49-39-48C34-167 62-67 57 0H25l-1-190h30c1 10-1 24 2 32 11-22 29-35 61-36" id="p"/><path d="M85-194c31 0 48 13 60 33l-1-100h32l1 261h-30c-2-10 0-23-3-31C134-8 116 4 85 4 32 4 16-35 15-94c0-66 23-100 70-100zm9 24c-40 0-46 34-46 75 0 40 6 74 45 74 42 0 51-32 51-76 0-42-9-74-50-73" id="q"/><path d="M100-194c63 0 86 42 84 106H49c0 40 14 67 53 68 26 1 43-12 49-29l28 8c-11 28-37 45-77 45C44 4 14-33 15-96c1-61 26-98 85-98zm52 81c6-60-76-77-97-28-3 7-6 17-6 28h103" id="r"/><path d="M141 0L90-78 38 0H4l68-98-65-92h35l48 74 47-74h35l-64 92 68 98h-35" id="s"/><g id="a"><use transform="matrix(0.05,0,0,0.05,0,0)" xlink:href="#o"/><use transform="matrix(0.05,0,0,0.05,5,0)" xlink:href="#p"/><use transform="matrix(0.05,0,0,0.05,15,0)" xlink:href="#q"/><use transform="matrix(0.05,0,0,0.05,25,0)" xlink:href="#r"/><use transform="matrix(0.05,0,0,0.05,35,0)" xlink:href="#s"/></g><path d="M30-248c87 1 191-15 191 75 0 78-77 80-158 76V0H30v-248zm33 125c57 0 124 11 124-50 0-59-68-47-124-48v98" id="t"/><path d="M141-36C126-15 110 5 73 4 37 3 15-17 15-53c-1-64 63-63 125-63 3-35-9-54-41-54-24 1-41 7-42 31l-33-3c5-37 33-52 76-52 45 0 72 20 72 64v82c-1 20 7 32 28 27v20c-31 9-61-2-59-35zM48-53c0 20 12 33 32 33 41-3 63-29 60-74-43 2-92-5-92 41" id="u"/><path d="M177-190C167-65 218 103 67 71c-23-6-38-20-44-43l32-5c15 47 100 32 89-28v-30C133-14 115 1 83 1 29 1 15-40 15-95c0-56 16-97 71-98 29-1 48 16 59 35 1-10 0-23 2-32h30zM94-22c36 0 50-32 50-73 0-42-14-75-50-75-39 0-46 34-46 75s6 73 46 73" id="v"/><g id="b"><use transform="matrix(0.05,0,0,0.05,0,0)" xlink:href="#t"/><use transform="matrix(0.05,0,0,0.05,12,0)" xlink:href="#u"/><use transform="matrix(0.05,0,0,0.05,22,0)" xlink:href="#v"/><use transform="matrix(0.05,0,0,0.05,32,0)" xlink:href="#r"/></g><path d="M140-251c81 0 123 46 123 126C263-53 228-8 163 1c7 30 30 48 69 40v23c-55 16-95-15-103-61C56-3 17-48 17-125c0-80 42-126 123-126zm0 227c63 0 89-41 89-101s-29-99-89-99c-61 0-89 39-89 99S79-25 140-24" id="w"/><path d="M84 4C-5 8 30-112 23-190h32v120c0 31 7 50 39 49 72-2 45-101 50-169h31l1 190h-30c-1-10 1-25-2-33-11 22-28 36-60 37" id="x"/><path d="M135-143c-3-34-86-38-87 0 15 53 115 12 119 90S17 21 10-45l28-5c4 36 97 45 98 0-10-56-113-15-118-90-4-57 82-63 122-42 12 7 21 19 24 35" id="y"/><path d="M59-47c-2 24 18 29 38 22v24C64 9 27 4 27-40v-127H5v-23h24l9-43h21v43h35v23H59v120" id="z"/><path d="M24-231v-30h32v30H24zM24 0v-190h32V0H24" id="A"/><path d="M100-194c62-1 85 37 85 99 1 63-27 99-86 99S16-35 15-95c0-66 28-99 85-99zM99-20c44 1 53-31 53-75 0-43-8-75-51-75s-53 32-53 75 10 74 51 75" id="B"/><g id="c"><use transform="matrix(0.05,0,0,0.05,0,0)" xlink:href="#w"/><use transform="matrix(0.05,0,0,0.05,14,0)" xlink:href="#x"/><use transform="matrix(0.05,0,0,0.05,24,0)" xlink:href="#r"/><use transform="matrix(0.05,0,0,0.05,34,0)" xlink:href="#y"/><use transform="matrix(0.05,0,0,0.05,43,0)" xlink:href="#z"/><use transform="matrix(0.05,0,0,0.05,48,0)" xlink:href="#A"/><use transform="matrix(0.05,0,0,0.05,51.95,0)" xlink:href="#B"/><use transform="matrix(0.05,0,0,0.05,61.95,0)" xlink:href="#p"/></g><path d="M143 4C61 4 22-44 18-125c-5-107 100-154 193-111 17 8 29 25 37 43l-32 9c-13-25-37-40-76-40-61 0-88 39-88 99 0 61 29 100 91 101 35 0 62-11 79-27v-45h-74v-28h105v86C228-13 192 4 143 4" id="C"/><g id="d"><use transform="matrix(0.05,0,0,0.05,0,0)" xlink:href="#C"/><use transform="matrix(0.05,0,0,0.05,14,0)" xlink:href="#x"/><use transform="matrix(0.05,0,0,0.05,24,0)" xlink:href="#r"/><use transform="matrix(0.05,0,0,0.05,34,0)" xlink:href="#y"/><use transform="matrix(0.05,0,0,0.05,43,0)" xlink:href="#y"/></g><g id="e"><use transform="matrix(0.05,0,0,0.05,0,0)" xlink:href="#t"/><use transform="matrix(0.05,0,0,0.05,12,0)" xlink:href="#u"/><use transform="matrix(0.05,0,0,0.05,22,0)" xlink:href="#v"/><use transform="matrix(0.05,0,0,0.05,32,0)" xlink:href="#r"/></g><path d="M212-179c-10-28-35-45-73-45-59 0-87 40-87 99 0 60 29 101 89 101 43 0 62-24 78-52l27 14C228-24 195 4 139 4 59 4 22-46 18-125c-6-104 99-153 187-111 19 9 31 26 39 46" id="D"/><path d="M114-163C36-179 61-72 57 0H25l-1-190h30c1 12-1 29 2 39 6-27 23-49 58-41v29" id="E"/><path d="M96-169c-40 0-48 33-48 73s9 75 48 75c24 0 41-14 43-38l32 2c-6 37-31 61-74 61-59 0-76-41-82-99-10-93 101-131 147-64 4 7 5 14 7 22l-32 3c-4-21-16-35-41-35" id="F"/><path d="M103-251c84 0 111 97 45 133-19 10-37 24-39 52H78c0-63 77-55 77-114 0-30-21-42-52-43-32 0-53 17-56 46l-32-2c7-45 34-72 88-72zM77 0v-35h34V0H77" id="G"/><g id="f"><use transform="matrix(0.05,0,0,0.05,0,0)" xlink:href="#D"/><use transform="matrix(0.05,0,0,0.05,12.950000000000001,0)" xlink:href="#B"/><use transform="matrix(0.05,0,0,0.05,22.950000000000003,0)" xlink:href="#E"/><use transform="matrix(0.05,0,0,0.05,28.900000000000002,0)" xlink:href="#E"/><use transform="matrix(0.05,0,0,0.05,34.85,0)" xlink:href="#r"/><use transform="matrix(0.05,0,0,0.05,44.85,0)" xlink:href="#F"/><use transform="matrix(0.05,0,0,0.05,53.85,0)" xlink:href="#z"/><use transform="matrix(0.05,0,0,0.05,58.85,0)" xlink:href="#G"/></g><path d="M137-103V0h-34v-103L8-248h37l75 118 75-118h37" id="H"/><g id="g"><use transform="matrix(0.05,0,0,0.05,0,0)" xlink:href="#H"/><use transform="matrix(0.05,0,0,0.05,10.35,0)" xlink:href="#r"/><use transform="matrix(0.05,0,0,0.05,20.35,0)" xlink:href="#y"/></g><path d="M190 0L58-211 59 0H30v-248h39L202-35l-2-213h31V0h-41" id="I"/><g id="h"><use transform="matrix(0.05,0,0,0.05,0,0)" xlink:href="#I"/><use transform="matrix(0.05,0,0,0.05,12.950000000000001,0)" xlink:href="#B"/></g><path d="M197 0v-115H63V0H30v-248h33v105h134v-105h34V0h-34" id="J"/><g id="i"><use transform="matrix(0.05,0,0,0.05,0,0)" xlink:href="#J"/><use transform="matrix(0.05,0,0,0.05,12.950000000000001,0)" xlink:href="#u"/><use transform="matrix(0.05,0,0,0.05,22.950000000000003,0)" xlink:href="#y"/></g><path d="M240 0l2-218c-23 76-54 145-80 218h-23L58-218 59 0H30v-248h44l77 211c21-75 51-140 76-211h43V0h-30" id="K"/><g id="j"><use transform="matrix(0.05,0,0,0.05,0,0)" xlink:href="#K"/><use transform="matrix(0.05,0,0,0.05,14.950000000000001,0)" xlink:href="#B"/><use transform="matrix(0.05,0,0,0.05,24.950000000000003,0)" xlink:href="#E"/><use transform="matrix(0.05,0,0,0.05,30.900000000000002,0)" xlink:href="#r"/></g><g id="k"><use transform="matrix(0.05,0,0,0.05,0,0)" xlink:href="#w"/><use transform="matrix(0.05,0,0,0.05,14,0)" xlink:href="#x"/><use transform="matrix(0.05,0,0,0.05,24,0)" xlink:href="#r"/><use transform="matrix(0.05,0,0,0.05,34,0)" xlink:href="#y"/><use transform="matrix(0.05,0,0,0.05,43,0)" xlink:href="#z"/><use transform="matrix(0.05,0,0,0.05,48,0)" xlink:href="#A"/><use transform="matrix(0.05,0,0,0.05,51.95,0)" xlink:href="#B"/><use transform="matrix(0.05,0,0,0.05,61.95,0)" xlink:href="#p"/><use transform="matrix(0.05,0,0,0.05,71.95,0)" xlink:href="#y"/><use transform="matrix(0.05,0,0,0.05,80.95,0)" xlink:href="#G"/></g><path d="M205 0l-28-72H64L36 0H1l101-248h38L239 0h-34zm-38-99l-47-123c-12 45-31 82-46 123h93" id="L"/><g id="l"><use transform="matrix(0.05,0,0,0.05,0,0)" xlink:href="#L"/><use transform="matrix(0.05,0,0,0.05,12,0)" xlink:href="#q"/><use transform="matrix(0.05,0,0,0.05,22,0)" xlink:href="#q"/></g><path d="M206 0h-36l-40-164L89 0H53L-1-190h32L70-26l43-164h34l41 164 42-164h31" id="M"/><g id="m"><use transform="matrix(0.05,0,0,0.05,0,0)" xlink:href="#I"/><use transform="matrix(0.05,0,0,0.05,12.950000000000001,0)" xlink:href="#r"/><use transform="matrix(0.05,0,0,0.05,22.950000000000003,0)" xlink:href="#M"/></g><path d="M30 0v-248h33v221h125V0H30" id="N"/><g id="n"><use transform="matrix(0.05,0,0,0.05,0,0)" xlink:href="#N"/><use transform="matrix(0.05,0,0,0.05,10,0)" xlink:href="#u"/><use transform="matrix(0.05,0,0,0.05,20,0)" xlink:href="#p"/><use transform="matrix(0.05,0,0,0.05,30,0)" xlink:href="#v"/><use transform="matrix(0.05,0,0,0.05,40,0)" xlink:href="#x"/><use transform="matrix(0.05,0,0,0.05,50,0)" xlink:href="#u"/><use transform="matrix(0.05,0,0,0.05,60,0)" xlink:href="#v"/><use transform="matrix(0.05,0,0,0.05,70,0)" xlink:href="#r"/></g></defs></g></svg>